<?xml version="1.0" encoding="UTF-8"?>
<!DOCTYPE svg PUBLIC "-//W3C//DTD SVG 1.1//EN" "http://www.w3.org/Graphics/SVG/1.1/DTD/svg11.dtd">
<!-- Creator: CorelDRAW -->
<svg xmlns="http://www.w3.org/2000/svg" xml:space="preserve" width="512px" height="512px" version="1.1" style="shape-rendering:geometricPrecision; text-rendering:geometricPrecision; image-rendering:optimizeQuality; fill-rule:evenodd; clip-rule:evenodd"
viewBox="0 0 512 512"
 xmlns:xlink="http://www.w3.org/1999/xlink"
 xmlns:xodm="http://www.corel.com/coreldraw/odm/2003">
 <defs>
  <style type="text/css">
   <![CDATA[
    .fil1 {fill:white}
    .fil0 {fill:#85705A}
   ]]>
  </style>
 </defs>
 <g id="Camada_x0020_1">
  <metadata id="CorelCorpID_0Corel-Layer"/>
  <rect class="fil0" x="-3" y="2" width="512" height="512"/>
  <path class="fil1" d="M342.3 209.7c-30.33,1.1 -41.8,13.55 -42.27,14.08 -1.9,2.12 -1.72,5.35 0.38,7.28 0.99,0.92 2.25,1.37 3.51,1.37 1.4,-0.01 2.8,-0.56 3.83,-1.65 0.09,-0.09 9.49,-9.73 34.93,-10.66 2.88,-0.1 5.13,-2.52 5.02,-5.4 -0.1,-2.88 -2.58,-5.18 -5.4,-5.02z"/>
  <path class="fil1" d="M336.28 234.34c-3.76,3.53 -12.65,1.15 -15.47,0.04 -2.67,-1.08 -5.69,0.22 -6.77,2.89 -1.07,2.67 0.22,5.7 2.89,6.78 1.02,0.41 6.74,2.59 13.17,2.59 4.57,0 9.48,-1.1 13.32,-4.71 2.1,-1.97 2.2,-5.27 0.22,-7.37 -1.97,-2.09 -5.27,-2.2 -7.36,-0.22z"/>
  <path class="fil1" d="M369.79 368.12l-0.71 -2.41 1.55 -15.06c0.09,-0.81 -0.02,-1.62 -0.31,-2.38l-1.56 -4.13c3.67,-4.28 7.12,-8.7 10.34,-13.28 0.05,-0.06 0.11,-0.11 0.16,-0.18 0.04,-0.06 0.06,-0.12 0.09,-0.17 4.78,-6.81 9.04,-13.92 12.77,-21.29 0.07,-0.12 0.16,-0.21 0.22,-0.34 0.05,-0.09 0.06,-0.19 0.1,-0.28 3.79,-7.55 7.04,-15.35 9.68,-23.36 0.01,-0.01 0.01,-0.02 0.01,-0.03 0.01,-0.01 0.01,-0.01 0.01,-0.02 2.67,-8.09 4.71,-16.39 6.18,-24.82 0,-0.06 0.04,-0.1 0.04,-0.15 0.01,-0.06 0,-0.12 0.01,-0.18 1.39,-8.13 2.2,-16.38 2.43,-24.72 0.04,-0.28 0.07,-0.56 0.07,-0.86 -0.01,-0.11 -0.04,-0.22 -0.05,-0.33 0.03,-1.19 0.09,-2.38 0.09,-3.57 0,-7.2 -0.49,-14.27 -1.34,-21.24 0,-0.29 -0.02,-0.59 -0.07,-0.88 -0.02,-0.11 -0.06,-0.21 -0.08,-0.31 -1.08,-8.33 -2.74,-16.48 -4.96,-24.41 -0.04,-0.34 -0.12,-0.69 -0.24,-1.03 -0.03,-0.11 -0.1,-0.21 -0.14,-0.32 -2.32,-8.06 -5.21,-15.87 -8.62,-23.4 -0.1,-0.38 -0.23,-0.75 -0.41,-1.1 -0.08,-0.16 -0.19,-0.29 -0.28,-0.43 -3.52,-7.58 -7.57,-14.86 -12.09,-21.8 -0.16,-0.37 -0.35,-0.73 -0.59,-1.07 -0.1,-0.14 -0.23,-0.25 -0.34,-0.37 -4.76,-7.16 -10.03,-13.94 -15.77,-20.3 -0.14,-0.18 -0.2,-0.39 -0.37,-0.55 -0.09,-0.09 -0.22,-0.12 -0.32,-0.21 -5.74,-6.3 -11.95,-12.16 -18.56,-17.56 -0.24,-0.27 -0.51,-0.52 -0.81,-0.75 -0.18,-0.12 -0.36,-0.21 -0.54,-0.31 -6.62,-5.3 -13.63,-10.13 -20.98,-14.43 -0.3,-0.26 -0.62,-0.49 -0.98,-0.68 -0.21,-0.1 -0.42,-0.17 -0.63,-0.25 -7.36,-4.2 -15.06,-7.89 -23.04,-11 -0.33,-0.2 -0.67,-0.37 -1.05,-0.5 -0.17,-0.06 -0.35,-0.08 -0.53,-0.12 -17.66,-6.69 -36.68,-10.57 -56.52,-11.14 -0.29,-0.05 -0.59,-0.08 -0.89,-0.08 -0.19,0 -0.36,0.03 -0.54,0.05 -1.2,-0.03 -2.39,-0.09 -3.59,-0.09 -7.88,0 -15.63,0.57 -23.23,1.59 -0.14,0.01 -0.28,0 -0.41,0.02 -0.09,0.01 -0.16,0.05 -0.24,0.07 -8.95,1.22 -17.67,3.13 -26.14,5.66 -0.26,0.05 -0.54,0.09 -0.81,0.17 -0.16,0.05 -0.3,0.13 -0.45,0.2 -8.59,2.64 -16.89,5.94 -24.86,9.83 -0.21,0.07 -0.42,0.13 -0.62,0.23 -0.28,0.14 -0.54,0.31 -0.79,0.49 -7.76,3.88 -15.18,8.31 -22.24,13.26 -0.33,0.14 -0.65,0.31 -0.96,0.53 -0.32,0.22 -0.61,0.49 -0.86,0.77 -7.14,5.14 -13.89,10.8 -20.16,16.94 -0.11,0.09 -0.25,0.12 -0.36,0.23 -0.1,0.1 -0.14,0.23 -0.24,0.33 -6.34,6.27 -12.22,13.01 -17.55,20.18 -0.15,0.15 -0.3,0.29 -0.43,0.46 -0.24,0.3 -0.43,0.63 -0.58,0.96 -5.09,6.98 -9.66,14.35 -13.68,22.06 -0.13,0.19 -0.27,0.36 -0.39,0.57 -0.18,0.33 -0.32,0.67 -0.42,1.02 -3.91,7.7 -7.27,15.72 -10.02,24.02 -0.08,0.15 -0.17,0.3 -0.23,0.46 -0.09,0.26 -0.15,0.53 -0.2,0.8 -2.67,8.27 -4.75,16.81 -6.16,25.58 -0.03,0.11 -0.08,0.22 -0.11,0.35 -0.03,0.17 -0.03,0.35 -0.05,0.52 -1.36,8.72 -2.08,17.65 -2.09,26.74 0,0 0,0.01 0,0.01 0,0 0,0.01 0,0.01 0,0.07 0,0.14 0,0.22 0,9 0.74,17.89 2.07,26.62 0.01,0.08 -0.01,0.16 0,0.24 0.01,0.07 0.05,0.13 0.06,0.2 1.38,8.85 3.45,17.53 6.14,25.98 0,0.04 0,0.07 0.01,0.1 0.01,0.04 0.04,0.07 0.05,0.11 8.08,25.24 21.85,48.36 40.54,67.67 0.03,0.04 0.05,0.09 0.08,0.12 0.06,0.07 0.14,0.12 0.2,0.19 4.59,4.72 9.47,9.2 14.63,13.43l0.31 3.1c-2.1,4.03 -3.74,8.32 -4.78,12.82l-0.52 2.06c-47.71,-36.11 -76.03,-92.56 -76.03,-152.64 0,-105.6 85.91,-191.52 191.52,-191.52 105.6,0 191.51,85.92 191.51,191.52 0,51.99 -21.18,101.62 -58.35,137.56zm-10.16 18.34l-6.78 12.1 -47.08 -26.46c-4.41,-2.48 -6.72,-7.48 -5.73,-12.45l6.14 -30.94c0.15,-0.78 0.13,-1.59 -0.08,-2.36l-3.73 -13.91c-0.75,-2.78 -3.62,-4.44 -6.39,-3.68 -2.78,0.74 -4.43,3.6 -3.68,6.38l3.42 12.74 -4.82 24.23 -19.46 -16.73c-2.06,-1.77 -3.07,-4.44 -2.7,-7.14l3.64 -26.61c0.39,-2.85 -1.6,-5.48 -4.46,-5.87 -2.86,-0.36 -5.48,1.61 -5.87,4.46l-2.52 18.45c-6.66,-4.84 -15.19,-12.48 -17.97,-20.49 -0.1,-0.29 -0.24,-0.55 -0.38,-0.81l16.71 -33.55 2.41 -1.37c1.81,-1.02 3.53,-2.18 5.17,-3.42l2.84 16.68c0.24,1.39 1.03,2.63 2.2,3.43l51.22 34.99c0.89,0.61 1.92,0.91 2.94,0.91 1.21,0 2.41,-0.42 3.38,-1.24l15.28 -13 14.26 0.97 0.89 5 -2.8 5.08 -19.49 7.57c-5.09,1.97 -9.2,5.78 -11.64,10.57 -0.07,0.13 -0.13,0.26 -0.19,0.4 -0.62,1.28 -1.15,2.61 -1.52,4.01l-1.8 6.92c-0.73,2.78 0.94,5.63 3.73,6.36 0.44,0.11 0.88,0.17 1.32,0.17 2.31,0 4.43,-1.56 5.04,-3.9l0.31 -1.19c8.16,4.99 19.86,5.32 21.65,5.34 0.02,0 0.04,0 0.05,0 1.84,0 3.54,-0.96 4.48,-2.54l0.32 -0.54 2.19 5.79 -1.52 14.84c-0.07,0.67 -0.01,1.35 0.18,1.99l2.15 7.42c1.1,3.79 0.62,7.95 -1.31,11.4zm-47.45 20.07c-1.41,-3.78 -2.57,-7.53 -3.42,-10.72l19.15 0.69 2.18 1.23c-5.75,3.22 -11.75,6.14 -17.91,8.8zm38.75 42.63l-67.55 0c-13.66,-14.51 -32.68,-27.29 -45.64,-35.14l1.5 -0.16c16.34,-1.66 33.07,0.85 48.37,7.31l49.61 20.92c4.76,2 9.34,4.36 13.71,7.07zm-204.47 -9.88l19.01 -1.96c26.41,-2.72 53.3,1.18 77.78,11.27l1.39 0.57 -108.85 0c3.3,-3.56 6.88,-6.84 10.67,-9.88zm-24.35 9.88l-16.82 0c0.06,-2.72 0.46,-5.42 1.2,-8.03 2.51,-8.88 8.69,-16.31 16.95,-20.38l81.01 -39.9c0.15,-0.08 0.3,-0.17 0.46,-0.25l-12.6 26.6c-0.17,0.36 -0.29,0.73 -0.37,1.11 -18.55,2.8 -36.03,10.26 -50.82,21.84 -0.04,0.02 -0.07,0.05 -0.11,0.08 -0.02,0.02 -0.03,0.03 -0.05,0.05 -7.02,5.5 -13.36,11.84 -18.85,18.88zm2.3 -102.1c0.05,0.89 0.04,1.79 0.13,2.7l0.03 0.22c-0.57,-0.53 -1.13,-1.06 -1.68,-1.59l1.52 -1.33zm8.13 -33.82c-3.49,5.93 -5.9,12.39 -7.18,19.13l-9.77 8.55c-3.25,-3.55 -6.32,-7.23 -9.22,-11.02l26.17 -16.66zm5.92 -24.41l0.34 8.05 -38.51 24.53c-2.71,-4.05 -5.27,-8.19 -7.6,-12.46l45.77 -20.12zm-0.75 -17.69l0.28 6.51 -49.98 21.97c-2.07,-4.47 -3.96,-9.02 -5.63,-13.67l55.33 -14.81zm-0.7 -16.42l0.24 5.75 -58.1 15.55c-1.38,-4.79 -2.48,-9.67 -3.42,-14.59l61.28 -6.71zm-57.72 -69.8l60.25 21.94c-0.51,1.84 -0.98,3.69 -1.38,5.54l-62.48 -12.44c0.97,-5.1 2.18,-10.12 3.61,-15.04zm9.23 -24.37l56.52 31.02c-0.79,1.78 -1.54,3.58 -2.23,5.39l-60.32 -21.97c1.78,-4.93 3.8,-9.74 6.03,-14.44zm13.07 -22.66l50.93 39.07c-1.02,1.72 -1.99,3.46 -2.93,5.21l-56.3 -30.89c2.56,-4.6 5.33,-9.07 8.3,-13.39zm107.83 -68.89l7.55 48.96c-2.55,1.06 -5.07,2.19 -7.55,3.44l-15.45 -49.03c5.06,-1.37 10.22,-2.49 15.45,-3.37zm26.12 43.18c-2.88,0.62 -5.74,1.35 -8.57,2.21l-7.22 -46.82c5.2,-0.54 10.47,-0.8 15.79,-0.84l0 45.45zm42.77 -0.75c-3.21,-0.58 -6.43,-1.02 -9.65,-1.31l6.85 -38.72c5.07,1.24 10.04,2.72 14.91,4.42l-12.11 35.61zm76.7 61.4l-2.12 -7.29 4.92 -4.58c0.96,-0.9 1.46,-2.08 1.58,-3.29l17.03 -12.48c2.55,4.15 4.89,8.43 7.07,12.81l-28.48 14.83zm5.55 19.17l-2.59 -8.96 29.87 -15.55c1.86,4.43 3.52,8.96 4.98,13.57l-32.26 10.94zm33.08 85.31l-12.56 -3.67 -3.54 -12.21 19.46 2.56c-0.93,4.49 -2.05,8.93 -3.36,13.32zm-8.52 22.46l-5.53 -2.58c0.91,-0.98 1.73,-2.05 2.39,-3.25 1.46,-2.67 2.1,-5.63 1.96,-8.6l6.42 1.87c-1.57,4.26 -3.32,8.44 -5.24,12.56zm-11.6 20.8l-7.86 -5.23 2.83 -5.15c0.58,-1.04 0.78,-2.24 0.57,-3.42l-0.57 -3.25 11.96 5.57c-2.14,3.92 -4.47,7.74 -6.93,11.48zm-9.49 11.09l-1.08 -5.61 4.56 3.05c-0.98,1.3 -1.97,2.58 -2.99,3.85l-0.49 -1.29zm36.42 -102.19l-35.57 0.75 -2.8 -2.57c0.81,-1.93 1.45,-3.91 1.92,-5.93l35.75 -6.28c0.43,4.63 0.67,9.3 0.7,14.03zm-1.62 24.24l-24.46 -3.21 -2.89 -9.99 28.7 -0.6c-0.26,4.63 -0.7,9.23 -1.35,13.8zm-0.34 -48.63l-33.52 5.89c-0.15,-2.95 -0.62,-5.89 -1.46,-8.79l-0.04 -0.15 32.18 -10.92c1.14,4.59 2.1,9.24 2.84,13.97zm-325.56 30.93l63.4 2.77 0.23 5.5 -62.47 6.84c-0.62,-4.99 -1,-10.03 -1.16,-15.11zm1.14 -25.73l62.42 12.42c-0.19,1.88 -0.3,3.76 -0.37,5.63l-63.22 -2.76c0.15,-5.16 0.55,-10.26 1.17,-15.29zm181.08 43.1l-63.32 35.93c-1.39,0.79 -2.34,2.17 -2.59,3.76 -2.64,17.31 -12.43,32.94 -26.87,42.86l-18.57 12.76c-2.98,2.04 -5.7,4.38 -8.18,6.92l-0.71 -6.92c-1.53,-14.93 3.68,-29.58 14.29,-40.2l9.68 -9.67c0.66,-0.66 1.13,-1.49 1.36,-2.41l8.09 -31.83c7.19,-28.29 23.98,-53.55 47.29,-71.12l10.86 -8.19c2.3,-1.73 2.76,-5 1.02,-7.3 -1.73,-2.3 -5,-2.75 -7.3,-1.02l-10.86 8.18c-25.19,19 -43.35,46.3 -51.11,76.88l-7.74 30.45 -1.38 1.38 -2.55 -59.88c-0.23,-4.71 0.09,-9.52 0.86,-14.37 0,-0.01 0.01,-0.02 0.01,-0.03 0.01,-0.05 0.01,-0.1 0.01,-0.15 0.74,-4.55 1.9,-9.14 3.4,-13.71 0.04,-0.08 0.1,-0.14 0.13,-0.22 0.09,-0.26 0.15,-0.53 0.2,-0.79 1.42,-4.19 3.15,-8.37 5.13,-12.48 0.06,-0.11 0.15,-0.19 0.21,-0.3 0.18,-0.33 0.32,-0.67 0.43,-1.03 1.97,-4 4.17,-7.95 6.58,-11.8 0.04,-0.05 0.1,-0.09 0.14,-0.14 0.23,-0.31 0.42,-0.64 0.58,-0.98 5.48,-8.58 11.92,-16.66 18.87,-23.8 0.05,-0.06 0.11,-0.12 0.16,-0.18 3.79,-3.88 7.72,-7.48 11.72,-10.73 0.12,-0.09 0.23,-0.19 0.35,-0.29 4.43,-3.58 8.95,-6.72 13.47,-9.36 0.06,-0.03 0.13,-0.07 0.19,-0.11 0.5,-0.29 1,-0.59 1.5,-0.87 20.37,-11.35 44.19,-15.16 67.08,-10.75l13.1 2.53c2.41,0.47 4.8,1.05 7.17,1.69 -20.97,11.67 -49.6,35.81 -53.46,39.1 -2.2,1.87 -2.46,5.16 -0.6,7.35 1.03,1.21 2.5,1.83 3.98,1.83 1.19,0 2.39,-0.4 3.37,-1.24 12,-10.2 45.32,-36.8 60.61,-42.08 12.62,5.57 24.12,13.69 33.44,23.9l1.74 1.9 -17.6 16.43c-9.07,8.47 -32.08,24.25 -42.31,28.19l-59.63 22.96c-16.53,6.36 -29.89,19.39 -36.67,35.76l-7.83 18.91c-1.1,2.66 0.16,5.71 2.82,6.81 2.65,1.11 5.71,-0.16 6.81,-2.82l7.83 -18.91c5.69,-13.74 16.91,-24.68 30.79,-30.02l50.31 -19.37 -11.41 22.89c-3.3,6.62 -8.45,12.05 -14.89,15.7zm-28.53 49.83c-0.75,1.49 -1.71,2.88 -2.85,4.11l-29.56 31.7c-1.96,2.1 -1.84,5.4 0.27,7.37 1,0.93 2.27,1.4 3.55,1.4 1.4,0 2.79,-0.56 3.81,-1.66l29.56 -31.7c1.55,-1.67 2.84,-3.55 3.94,-5.53 0.6,0.94 1.24,1.87 1.91,2.77l-2.64 14.05c-3.74,19.78 -16.73,36.89 -34.77,45.77l-74.09 36.5 6.04 -24.43c2.48,-10.71 8.84,-20.04 17.91,-26.28l18.57 -12.75c16.1,-11.07 27.24,-28.22 30.85,-47.37l42.52 -24.12 -15.02 30.17zm20.59 135.74c-25.44,-10.49 -53.34,-14.64 -80.81,-12.14 10.11,-4.74 20.98,-7.78 32.24,-8.89l21.27 -2.12c5.51,2.98 27.36,15.19 45.33,30.54l-18.03 -7.39zm11.09 -108.51c0.29,4.92 2.51,9.55 6.34,12.85l24.92 21.42c0.86,6.81 4.87,12.98 11.1,16.48l7.4 4.16 -5.73 -0.21c-1.57,-0.06 -3.1,0.61 -4.13,1.81 -1.04,1.2 -1.47,2.81 -1.18,4.37 0.15,0.76 2.38,12.35 7.37,23.78 0.03,0.08 0.04,0.17 0.07,0.25 0.05,0.12 0.13,0.21 0.19,0.33 0.25,0.57 0.52,1.13 0.78,1.7l-13.77 -5.81c-16.91,-7.14 -35.4,-9.93 -53.47,-8.07l-34.21 3.41 18.1 -38.21c11.65,-10.79 19.78,-25.18 22.78,-41.05l1.21 -6.45c4.73,4.23 9.39,7.43 12.23,9.24zm86.05 -40.02c0.41,-2.12 1.77,-4.67 5.59,-6.28 2.66,-1.12 3.9,-4.18 2.77,-6.83 -1.12,-2.66 -4.18,-3.89 -6.83,-2.78 -11.21,4.74 -12.73,14.73 -11.88,20.52l-9.68 8.23 -46.1 -31.5 -3.7 -21.74c1.84,-2.4 3.48,-4.96 4.85,-7.71l16.72 -33.54c13.06,-6.61 32.38,-20.44 40.36,-27.89l7.9 -7.38 9.15 31.57c2.05,7.06 1.19,14.82 -2.36,21.27 -1.16,2.1 -0.73,4.73 1.04,6.36l8.42 7.73 4.66 16.09c0.02,0.05 0.03,0.11 0.05,0.16l6.56 22.63c0.01,0.05 0.03,0.1 0.04,0.15l1.43 4.93c0.44,1.49 0.25,3.14 -0.5,4.5 -1.1,2.01 -3.29,3.23 -5.58,3.05l-22.91 -1.54zm9.15 41.71l-3.23 5.4c-5.6,-0.48 -12.3,-2.1 -15.04,-4.9 1.25,-1.53 2.85,-2.76 4.74,-3.49l12.05 -4.68 1.48 7.67zm17.16 -195.65l-16.91 12.39 -0.86 -0.94c-2.3,-2.53 -4.76,-4.9 -7.29,-7.2l15.99 -15.98c3.2,3.76 6.22,7.68 9.07,11.73zm-16.07 -19.47l-17.1 17.09c-3,-2.24 -6.11,-4.32 -9.32,-6.24l15.52 -21.18c3.79,3.28 7.42,6.72 10.9,10.33zm-18.99 -16.92l-16.7 22.77c-1.3,-0.62 -2.63,-1.19 -3.97,-1.76 -0.53,-0.35 -1.12,-0.59 -1.75,-0.73 -1.44,-0.58 -2.86,-1.19 -4.32,-1.72l14.18 -27.22c4.32,2.69 8.52,5.58 12.56,8.66zm-21.58 -13.91l-15.32 29.41c-2.01,-0.51 -4.01,-1.03 -6.05,-1.42l-4 -0.77 11.52 -33.87c4.73,2 9.35,4.23 13.85,6.65zm-48.72 -16.91l-7.16 40.42c-4.07,0.02 -8.13,0.26 -12.17,0.73l0 -43.43c6.56,0.37 13,1.16 19.33,2.28zm-81.3 6.15l16.15 51.25c-2.13,1.36 -4.26,2.81 -6.38,4.36l-24.54 -49.77c4.81,-2.17 9.73,-4.12 14.77,-5.84zm-24.13 10.43l25.54 51.8c-1.78,1.53 -3.55,3.12 -5.29,4.77l-33.91 -48.42c4.41,-2.93 8.97,-5.65 13.66,-8.15zm-22.15 14.18l34.95 49.92c-1.49,1.61 -2.95,3.26 -4.38,4.94l-42.75 -44.64c3.89,-3.59 7.95,-7 12.18,-10.22zm-19.6 17.55l43.61 45.54c-1.23,1.64 -2.42,3.32 -3.58,5.02l-50.36 -38.64c3.25,-4.14 6.7,-8.12 10.33,-11.92zm118.51 -88.96c-111.36,0 -201.94,90.59 -201.94,201.94 0,64.83 31.26,125.68 83.74,163.6l-5.09 20.54c-8.12,5.65 -14.16,13.96 -16.89,23.6 -1.06,3.77 -1.6,7.67 -1.6,11.61 0,1.97 0.12,3.64 0.37,5.26 0.39,2.54 2.58,4.42 5.15,4.42l24.27 0c0.01,0 0.03,0 0.05,0 0.02,0 0.04,0 0.06,0l242.03 0c2.18,0 4.12,-1.36 4.89,-3.39 0.76,-2.04 0.17,-4.34 -1.48,-5.77 -8.66,-7.5 -18.4,-13.53 -28.93,-17.95l-18.54 -7.82c-2.35,-2.17 -4.45,-5.18 -6.3,-8.61 8.42,-3.63 16.51,-7.79 24.18,-12.41l11.69 6.57c0.79,0.44 1.67,0.67 2.56,0.67 0.47,0 0.94,-0.07 1.41,-0.2 1.33,-0.37 2.46,-1.26 3.13,-2.47l9.33 -16.65c1.92,-3.43 2.98,-7.27 3.16,-11.16 42.39,-38.21 66.69,-92.66 66.69,-149.84 0,-111.35 -90.59,-201.94 -201.94,-201.94z"/>
 </g>
</svg>
